<?xml version="1.0" encoding="utf-8"?>
<!-- Generator: Adobe Illustrator 24.3.0, SVG Export Plug-In . SVG Version: 6.00 Build 0)  -->
<svg version="1.1" id="Layer_1" xmlns="http://www.w3.org/2000/svg" xmlns:xlink="http://www.w3.org/1999/xlink" x="0px" y="0px"
	 viewBox="0 0 300 300" enable-background="new 0 0 300 300" xml:space="preserve">
<g>
	<g>
		<g>
			<path fill="#E5E5E4" d="M37.082,254.598c-4.37,0-7.91-3.543-7.91-7.913l9.071-113.03h66.85l9.071,113.03
				c0,4.37-3.54,7.913-7.91,7.913H37.082z"/>
		</g>
		<g>
			<path fill="#EFEFEF" d="M41.387,246.685l9.071-113.03H38.242l-9.071,113.03c0,4.37,3.54,7.913,7.91,7.913h12.215
				C44.927,254.598,41.387,251.055,41.387,246.685z"/>
		</g>
		<g>
			<path fill="#F4F4F4" d="M35.865,163.259l-6.694,83.426c0,4.37,3.54,7.913,7.91,7.913h69.171c4.37,0,7.91-3.543,7.91-7.913
				l-6.694-83.426H35.865z"/>
		</g>
		<g>
			<path fill="#F9F9F9" d="M41.543,246.685l6.694-83.426H35.865l-6.694,83.426c0,4.37,3.54,7.913,7.91,7.913h12.372
				C45.084,254.598,41.543,251.055,41.543,246.685z"/>
		</g>
		<g>
			<rect x="128.684" y="107.198" fill="#F4F4F4" width="92.113" height="147.4"/>
		</g>
		<g>
			<rect x="220.798" y="107.198" fill="#E5E5E4" width="50.028" height="147.4"/>
		</g>
		<g>
			<polygon fill="#F4F4F4" points="246.223,62.346 154.11,62.346 128.684,107.198 220.798,107.198 			"/>
		</g>
		<g>
			<polygon fill="#F9F9F9" points="168.537,62.346 154.11,62.346 128.684,107.198 128.684,254.598 143.111,254.598 143.111,107.198 
							"/>
		</g>
		<g>
			<polygon fill="#E5E5E4" points="220.798,107.198 270.826,107.198 246.223,62.346 			"/>
		</g>
		<g>
			<rect x="154.11" y="45.213" fill="#9AE8CE" width="92.113" height="17.133"/>
		</g>
		<g>
			<rect x="128.684" y="149.401" fill="#9AE8CE" width="92.113" height="62.993"/>
		</g>
		<g>
			<rect x="220.798" y="149.401" fill="#86DBBC" width="50.134" height="62.993"/>
		</g>
		<g>
			<path fill="#F4F4F4" d="M29.172,113.62v20.034h85.118v-21.292c0-5.078-4.119-9.197-9.198-9.197h-66.85
				c-5.079,0-9.198,4.119-9.198,9.197C29.045,112.793,29.115,113.207,29.172,113.62z"/>
		</g>
		<g>
			<path fill="#F9F9F9" d="M41.225,112.362c0-5.078,4.119-9.197,9.198-9.197h-12.18c-5.079,0-9.198,4.119-9.198,9.197
				c0,0.431,0.071,0.844,0.127,1.258v20.034h12.18V113.62C41.295,113.207,41.225,112.793,41.225,112.362z"/>
		</g>
		<g>
			<path fill="#9AE8CE" d="M118.683,246.322l-9.041-112.667h-75.95l-9.042,112.667c-0.009,0.121-0.014,0.242-0.014,0.363
				c0,6.865,5.583,12.449,12.446,12.449h69.171c6.862,0,12.446-5.583,12.446-12.449
				C118.698,246.564,118.692,246.443,118.683,246.322z M106.252,250.063H37.082c-1.813,0-3.295-1.438-3.372-3.233l8.719-108.64
				h58.476l8.719,108.64C109.548,248.625,108.065,250.063,106.252,250.063z"/>
		</g>
		<g>
			<path fill="#AEF4DB" d="M29.151,246.685c0-0.121,0.006-0.242,0.015-0.363l9.041-112.667h-4.514l-9.042,112.667
				c-0.009,0.121-0.014,0.242-0.014,0.363c0,6.865,5.583,12.449,12.446,12.449h4.515C34.734,259.133,29.151,253.55,29.151,246.685z"
				/>
		</g>
		<g>
			<polygon fill="#9AE8CE" points="64.392,103.165 64.392,84.772 78.943,75.574 78.943,103.165 			"/>
		</g>
		<g>
			<polygon fill="#AEF4DB" points="64.392,84.772 64.392,103.165 71.667,103.165 71.667,80.175 			"/>
		</g>
		<g>
			<g>
				<path fill="#E5E5E4" d="M45.925,221.463c-0.095,0-0.192-0.003-0.287-0.009c-2.501-0.156-4.399-2.312-4.243-4.81l2.268-36.029
					c0.157-2.498,2.341-4.388,4.81-4.243c2.501,0.156,4.4,2.312,4.243,4.81l-2.268,36.029
					C50.298,219.614,48.302,221.463,45.925,221.463z"/>
			</g>
		</g>
		<g>
			<g>
				<path fill="#E5E5E4" d="M44.918,240.047c-0.086,0-0.172-0.003-0.26-0.006c-2.501-0.142-4.411-2.285-4.273-4.786l0.346-6.112
					c0.144-2.498,2.238-4.35,4.786-4.273c2.501,0.142,4.411,2.286,4.273,4.786l-0.346,6.112
					C49.306,238.181,47.307,240.047,44.918,240.047z"/>
			</g>
		</g>
		<g>
			<rect x="128.684" y="149.401" fill="#AEF4DB" width="14.427" height="62.993"/>
		</g>
		<g>
			<rect x="154.11" y="45.213" fill="#AEF4DB" width="14.427" height="17.133"/>
		</g>
	</g>
	<g>
		<g>
			<path fill="#161616" d="M220.809,259.228h-92.113c-2.504,0-4.535-2.031-4.535-4.535v-147.4c0-2.504,2.032-4.535,4.535-4.535
				h92.113c2.504,0,4.535,2.032,4.535,4.535v147.4C225.345,257.197,223.313,259.228,220.809,259.228z M133.231,250.157h83.042
				V111.828h-83.042V250.157z"/>
		</g>
		<g>
			<path fill="#161616" d="M270.837,259.228h-50.028c-2.504,0-4.535-2.031-4.535-4.535v-147.4c0-2.504,2.032-4.535,4.535-4.535
				h50.028c2.504,0,4.535,2.032,4.535,4.535v11.212c0,2.504-2.031,4.535-4.535,4.535s-4.535-2.031-4.535-4.535v-6.676h-40.957
				v138.329h40.957v-110.73c0-2.504,2.031-4.535,4.535-4.535s4.535,2.032,4.535,4.535v115.266
				C275.373,257.197,273.341,259.228,270.837,259.228z"/>
		</g>
		<g>
			<path fill="#161616" d="M220.809,111.828h-92.113c-1.615,0-3.106-0.856-3.918-2.253c-0.812-1.394-0.824-3.115-0.027-4.518
				l25.426-44.853c0.806-1.42,2.312-2.299,3.945-2.299h92.113c1.615,0,3.106,0.858,3.918,2.253c0.812,1.394,0.824,3.115,0.027,4.518
				l-25.426,44.852C223.948,110.951,222.442,111.828,220.809,111.828z M136.479,102.757h81.687l20.285-35.781h-81.687
				L136.479,102.757z"/>
		</g>
		<g>
			<path fill="#161616" d="M270.837,111.828h-50.028c-1.615,0-3.106-0.856-3.918-2.253c-0.812-1.394-0.824-3.115-0.027-4.518
				l25.426-44.853c0.806-1.422,2.312-2.299,3.945-2.299c0.012,0,0.021,0,0.033,0c1.645,0.012,3.154,0.912,3.945,2.355l24.602,44.851
				c0.771,1.406,0.741,3.112-0.074,4.494C273.923,110.983,272.441,111.828,270.837,111.828z M228.593,102.757h34.585L246.17,71.753
				L228.593,102.757z"/>
		</g>
		<g>
			<path fill="#161616" d="M246.235,66.976h-92.113c-2.504,0-4.535-2.032-4.535-4.535V45.307c0-2.505,2.032-4.535,4.535-4.535
				h92.113c2.504,0,4.535,2.03,4.535,4.535v17.133C250.771,64.944,248.739,66.976,246.235,66.976z M158.657,57.905H241.7v-8.062
				h-83.042V57.905z"/>
		</g>
		<g>
			<path fill="#161616" d="M221.633,217.025h-92.937c-2.504,0-4.535-2.031-4.535-4.535v-62.993c0-2.504,2.032-4.535,4.535-4.535
				h92.937c2.504,0,4.535,2.031,4.535,4.535v62.993C226.169,214.993,224.137,217.025,221.633,217.025z M133.231,207.954h83.866
				v-53.923h-83.866V207.954z"/>
		</g>
		<g>
			<path fill="#161616" d="M270.944,217.025h-49.311c-2.504,0-4.535-2.031-4.535-4.535v-62.993c0-2.504,2.031-4.535,4.535-4.535
				h49.311c2.504,0,4.535,2.031,4.535,4.535v62.993C275.479,214.993,273.448,217.025,270.944,217.025z M226.169,207.954h40.24
				v-53.923h-40.24V207.954z"/>
		</g>
		<g>
			<path fill="#161616" d="M106.264,259.228H91.849c-2.504,0-4.535-2.031-4.535-4.535s2.031-4.535,4.535-4.535h14.415
				c1.813,0,3.295-1.438,3.372-3.233l-8.719-108.64H42.441l-8.719,108.64c0.077,1.795,1.559,3.233,3.372,3.233h33.832
				c2.504,0,4.535,2.031,4.535,4.535s-2.032,4.535-4.535,4.535H37.094c-6.862,0-12.446-5.584-12.446-12.449
				c0-0.121,0.006-0.242,0.015-0.363l9.071-113.03c0.189-2.356,2.156-4.172,4.521-4.172h66.85c2.365,0,4.332,1.816,4.521,4.172
				l9.071,113.03c0.009,0.121,0.015,0.242,0.015,0.363C118.71,253.644,113.126,259.228,106.264,259.228z"/>
		</g>
		<g>
			<path fill="#161616" d="M114.301,138.284H29.183c-2.504,0-4.535-2.031-4.535-4.535v-19.718c-0.071-0.517-0.127-1.036-0.127-1.574
				c0-7.574,6.159-13.733,13.733-13.733h66.85c7.574,0,13.733,6.159,13.733,13.733v21.292
				C118.837,136.253,116.805,138.284,114.301,138.284z M33.719,129.214h76.048v-16.757c0-2.572-2.09-4.662-4.662-4.662h-66.85
				c-2.572,0-4.662,2.09-4.662,4.662c0.006,0.133,0.033,0.272,0.053,0.413c0.029,0.213,0.074,0.632,0.074,0.845V129.214z
				 M29.183,113.715h0.03H29.183z"/>
		</g>
		<g>
			<path fill="#161616" d="M78.954,107.794H64.403c-2.504,0-4.535-2.032-4.535-4.535V84.867c0-1.556,0.797-3.003,2.111-3.833
				l14.551-9.198c1.397-0.883,3.168-0.939,4.612-0.139c1.447,0.797,2.347,2.318,2.347,3.971v27.59
				C83.49,105.763,81.458,107.794,78.954,107.794z M68.939,98.724h5.48V83.901l-5.48,3.464V98.724z"/>
		</g>
		<g>
			<path fill="#161616" d="M106.264,259.228H91.849c-2.504,0-4.535-2.031-4.535-4.535s2.031-4.535,4.535-4.535h14.415
				c1.813,0,3.295-1.438,3.372-3.233l-6.342-79.036h-63.23l-6.342,79.036c0.077,1.795,1.559,3.233,3.372,3.233h33.832
				c2.504,0,4.535,2.031,4.535,4.535s-2.032,4.535-4.535,4.535H37.094c-6.862,0-12.446-5.584-12.446-12.449
				c0-0.121,0.006-0.242,0.015-0.363l6.694-83.426c0.189-2.356,2.155-4.172,4.521-4.172h71.604c2.365,0,4.332,1.816,4.521,4.172
				l6.694,83.426c0.009,0.121,0.015,0.242,0.015,0.363C118.71,253.644,113.126,259.228,106.264,259.228z"/>
		</g>
		<g>
			<path fill="#161616" d="M45.937,221.557c-0.095,0-0.192-0.003-0.286-0.009c-2.501-0.156-4.4-2.312-4.243-4.81l2.268-36.029
				c0.157-2.498,2.362-4.391,4.81-4.243c2.501,0.156,4.4,2.312,4.243,4.81l-2.268,36.029
				C50.31,219.709,48.314,221.557,45.937,221.557z"/>
		</g>
		<g>
			<path fill="#161616" d="M44.93,240.142c-0.086,0-0.171-0.003-0.26-0.006c-2.501-0.142-4.411-2.285-4.273-4.786l0.346-6.112
				c0.145-2.498,2.25-4.343,4.786-4.273c2.501,0.142,4.411,2.285,4.273,4.786l-0.345,6.112
				C49.318,238.275,47.319,240.142,44.93,240.142z"/>
		</g>
	</g>
</g>
</svg>
